<svg xmlns="http://www.w3.org/2000/svg" height="48" viewBox="0 96 960 960" width="48"><path d="M401.609 968.479q-12.696 9.695-24.957.5-12.261-9.196-7.565-23.892l29.565-97.522-79.522-59.391q-12.131-9.131-7.283-23.392t20.109-14.261h98.087l25-95.869L316 572.478q-22.261-13.13-34.609-34.391-12.348-21.261-12.348-47.088v-262.39q0-34.392 24.109-59.066t59.066-24.674h256.695q34.957 0 59.065 24.674 24.109 24.674 24.109 59.066v262.39q0 25.261-12.413 47.022T645 572.913l-139.913 81.739 26 95.869h96.522q15.261 0 20.109 14.261 4.848 14.261-6.283 23.392l-80.522 59.391 30.131 97.522q4.13 14.696-8.131 23.392-12.261 8.695-23.391-1l-78.957-56.827-78.956 57.827ZM485 579.391l31.478-19.174V253.304q0-13.87-9.087-22.674T485 221.826q-14.304 0-23.391 8.804-9.087 8.804-9.087 22.674v306.913L485 579.391Z"/></svg>