<svg xmlns="http://www.w3.org/2000/svg" height="48" viewBox="0 96 960 960" width="48" fill="#fdfaf3"><path d="M627.225 527.239q25.545 0 42.345-16.606 16.8-16.605 16.8-42.255 0-25.65-16.606-42.395-16.606-16.744-42.256-16.744-25.547 0-42.223 16.606t-16.676 42.256q0 25.65 16.536 42.394t42.08 16.744Zm-294.733 0q25.546 0 42.223-16.606 16.676-16.605 16.676-42.255 0-25.65-16.536-42.395-16.536-16.744-42.08-16.744-25.545 0-42.345 16.606-16.8 16.606-16.8 42.256t16.606 42.394q16.606 16.744 42.256 16.744Zm147.349 465.957q-86.188 0-162.15-32.921-75.962-32.92-132.504-89.462-56.542-56.542-89.462-132.677-32.92-76.134-32.92-162.603 0-86.363 32.979-162.317 32.979-75.954 89.809-132.774 56.83-56.821 132.582-89.349 75.751-32.528 161.829-32.528 86.44 0 162.739 32.506 76.299 32.505 132.877 89.3 56.577 56.795 89.196 133.094 32.619 76.298 32.619 162.811 0 86.497-32.528 161.915-32.528 75.418-89.349 132.048-56.82 56.63-133.047 89.793-76.227 33.164-162.67 33.164ZM313.547 778.13q10.083 0 17.892-5.119 7.808-5.12 13.387-12.641 23.184-31.125 59.388-47.248Q440.419 697 480.5 697q41.445 0 76.638 16.622 35.193 16.623 59.036 47.748 6 6.76 13.978 11.76t17.717 5q16.022 0 22.664-12.978 6.641-12.978-1.359-26.739-29.522-45.043-79.165-71.848-49.644-26.804-109.989-26.804-60.346 0-108.89 25.804-48.543 25.805-74.304 65.087-13.239 18.761-5.799 33.12 7.44 14.358 22.52 14.358Z"/></svg>