<svg xmlns="http://www.w3.org/2000/svg" height="48" viewBox="0 96 960 960" width="48"><path d="M224.218 994.826q-32.71 0-57.943-24.949-25.232-24.95-25.232-58.225V240.348q0-33.508 25.232-58.624 25.233-25.115 57.943-25.115h511.564q32.943 0 58.342 25.115 25.398 25.116 25.398 58.624v671.304q0 33.275-25.398 58.225-25.399 24.949-58.342 24.949H224.218Zm296.478-507.304 65.913-37.174 65.478 37.174q9.13 5.565 20.326-.258t11.196-19.134V240.348h-194V468.13q0 13.311 10.695 19.134 10.696 5.823 20.392.258Z"/></svg>