<svg xmlns="http://www.w3.org/2000/svg" height="48" viewBox="0 96 960 960" width="48"><path d="M480.144 660.13q-18.38 0-31.327-12.966-12.947-12.967-12.947-31.179 0-18.211 13.08-31.163 13.081-12.952 31.461-12.952t31.05 12.966q12.669 12.967 12.669 31.179 0 18.211-12.803 31.163-12.803 12.952-31.183 12.952Zm-160.158 0q-18.212 0-31.164-12.966-12.952-12.967-12.952-31.179 0-18.211 12.966-31.163 12.967-12.952 31.178-12.952 18.212 0 31.164 12.966 12.952 12.967 12.952 31.179 0 18.211-12.966 31.163-12.967 12.952-31.178 12.952Zm319.603 0q-17.589 0-30.654-12.966-13.065-12.967-13.065-31.179 0-18.211 13.198-31.163 13.199-12.952 31.07-12.952 17.872 0 30.932 12.966 13.06 12.967 13.06 31.179 0 18.211-13.08 31.163-13.081 12.952-31.461 12.952Zm-159.445 160q-18.38 0-31.327-13.198-12.947-13.199-12.947-31.07 0-17.872 13.08-30.932 13.081-13.06 31.461-13.06t31.05 13.08q12.669 13.081 12.669 31.461 0 17.589-12.803 30.654-12.803 13.065-31.183 13.065Zm-160.158 0q-18.212 0-31.164-13.198-12.952-13.199-12.952-31.07 0-17.872 12.966-30.932 12.967-13.06 31.178-13.06 18.212 0 31.164 13.08 12.952 13.081 12.952 31.461 0 17.589-12.966 30.654-12.967 13.065-31.178 13.065Zm319.603 0q-17.589 0-30.654-13.198-13.065-13.199-13.065-31.07 0-17.872 13.198-30.932 13.199-13.06 31.07-13.06 17.872 0 30.932 13.08 13.06 13.081 13.06 31.461 0 17.589-13.08 30.654-13.081 13.065-31.461 13.065ZM184.348 994.957q-33.501 0-58.338-25.233-24.836-25.232-24.836-57.942V299.913q0-33.734 24.836-58.737 24.837-25.002 58.338-25.002h54.653v-21.131q0-14.833 11.889-26.699 11.889-11.866 27.469-11.866 16.797 0 28.002 11.866 11.205 11.866 11.205 26.699v21.131h324.868v-21.131q0-14.833 11.493-26.699 11.494-11.866 27.583-11.866 16.514 0 28.002 11.866 11.487 11.866 11.487 26.699v21.131h54.653q33.734 0 58.737 25.002 25.002 25.003 25.002 58.737v611.869q0 32.71-25.002 57.942-25.003 25.233-58.737 25.233H184.348Zm0-83.175h591.304V482.783H184.348v428.999Z"/></svg>