<svg xmlns="http://www.w3.org/2000/svg" height="48" viewBox="0 96 960 960" width="48"><path d="M560 463.886q0-5.036 3.783-9.743 3.782-4.708 8.217-8.734 29.791-10.408 61.517-16.408 31.727-6 66.358-6 21.688 0 42.807 2.526 21.119 2.526 41.637 7.568 6.246 1.456 10.964 7.322 4.717 5.866 4.717 11.84 0 11.824-8.001 18.001-8 6.177-17.564 2.177-18-4-36.5-6.717-18.5-2.717-37.935-2.717-29.342 0-56.106 5.717-26.764 5.717-52.198 15.152-13.497 5.565-22.596-.722-9.1-6.287-9.1-19.262Zm0 220.205q0-5.241 3.783-10.448 3.782-5.208 8.217-9.234 29.791-10.408 61.517-15.908 31.727-5.5 66.358-5.5 21.688 0 42.807 2.526 21.119 2.526 41.637 7.568 6.246 1.456 10.964 7.322 4.717 5.866 4.717 11.84 0 11.824-8.001 18.001-8 6.177-17.564 2.177-18-4-36.5-6.717-18.5-2.717-37.935-2.717-29.342 0-56.106 5.217-26.764 5.217-52.198 14.652-13.497 5.565-22.596.374-9.1-5.191-9.1-19.153Zm0-110.205q0-5.036 3.783-9.743 3.782-4.708 8.217-8.734 29.791-10.408 61.517-16.408 31.727-6 66.358-6 21.688 0 42.807 2.526 21.119 2.526 41.637 7.568 6.246 1.456 10.964 7.322 4.717 5.866 4.717 11.84 0 11.824-8.001 18.001-8 6.177-17.564 2.177-18-4-36.5-6.717-18.5-2.717-37.935-2.717-29.342 0-56.106 5.717-26.764 5.717-52.198 15.152-13.497 5.565-22.596-.722-9.1-6.287-9.1-19.262Zm-47.261 249.549q50.017-24.565 97.837-37.282 47.819-12.718 102.088-12.718 38.206 0 78.923 6t69.587 16.435V365.464q-34-17.898-72.152-25.333-38.152-7.435-76.358-7.435-54.269 0-104.597 16.5-50.328 16.5-95.328 45.81v428.429Zm-29.396 95.479q-7.343 0-14.391-1.744t-13.604-5.386q-46.87-30.435-99.986-46.87-53.116-16.435-108.289-16.435-35.882 0-70.238 9.718-34.356 9.717-68.095 21.456-28.353 14.392-56.438-1.742t-28.085-50.867V359.906q0-20.34 9.261-37.758 9.261-17.417 27.783-27.018 43.818-19.304 90.277-28.456 46.46-9.152 94.439-9.152 63.023 0 123.523 17.5 60.5 17.5 112.5 53.196 52-35.131 110.515-52.913 58.515-17.783 121.547-17.783 48.097 0 94.17 9.935 46.072 9.934 89.507 27.673 18.522 9.601 28.283 27.018 9.761 17.418 9.761 38.07v473.044q0 33.087-28.803 48.435-28.802 15.348-56.72-2.044-32.739-12.739-66.907-21.956-34.169-9.218-70-9.218-54.331 0-105.733 16.718-51.402 16.717-96.707 46.587-5.896 3.642-12.778 5.386-6.883 1.744-14.792 1.744Z"/></svg>