<svg xmlns="http://www.w3.org/2000/svg" height="48" viewBox="0 96 960 960" width="48" fill="#fdfaf3"><path d="M279.761 507.717q8.522 9.761 20.454 9.022 11.932-.739 21.024-9.261l25-24.239 24.718 24.478q8.158 8.761 20.459 8.881 12.301.119 21.541-9.261 7.76-8.141 8.372-20.409.611-12.268-8.133-21.689l-39.283-39.804q-6.516-5.239-13.454-8.359-6.938-3.119-14.387-3.119-7.45 0-14.359 3.239t-11.909 8.239L280 465.239q-9 8.87-9.12 21.174-.119 12.304 8.881 21.304Zm269.282-1q7.761 9 20.165 9.381 12.405.38 21.075-8.381l24.592-24.478L640 507.478q9 8.522 21 8.881 12 .358 21-9.022 8-8.141 8-20.557 0-12.416-8-21.541l-39.804-39.804q-6.039-5-12.775-8.239-6.737-3.239-14.669-3.239-7.449 0-14.388 3.119-6.938 3.12-12.277 8.359l-39.044 39.804q-8.76 8.761-8.88 21.12-.12 12.358 8.88 20.358Zm-69.468 486.479q-85.454 0-161.653-32.901-76.199-32.9-132.758-89.459-56.559-56.559-89.46-132.856-32.9-76.297-32.9-161.947 0-86.544 32.96-162.66 32.959-76.117 89.767-132.961 56.809-56.843 132.761-89.345 75.953-32.502 161.212-32.502 86.622 0 163.072 32.483 76.45 32.484 133.058 89.309 56.608 56.825 89.204 133.116 32.597 76.29 32.597 163.069 0 85.763-32.502 161.457-32.502 75.693-89.345 132.485-56.844 56.793-133.074 89.752-76.23 32.96-162.939 32.96ZM480 802.13q58 0 108.141-26.858 50.142-26.859 80.663-72.098 11.522-16.761 2.474-29.163-9.049-12.402-28.756-12.402H317.478q-19.707 0-28.256 12.402-8.548 12.402 2.974 29.163 30.521 45.239 80.282 72.098Q422.239 802.13 480 802.13Z"/></svg>