<svg xmlns="http://www.w3.org/2000/svg" height="48" viewBox="0 96 960 960" width="48" fill="#fdfaf3"><path d="M627.225 527.239q25.545 0 42.345-16.606 16.8-16.605 16.8-42.255 0-25.65-16.606-42.395-16.606-16.744-42.256-16.744-25.547 0-42.223 16.606t-16.676 42.256q0 25.65 16.536 42.394t42.08 16.744Zm-294.733 0q25.546 0 42.223-16.606 16.676-16.605 16.676-42.255 0-25.65-16.536-42.395-16.536-16.744-42.08-16.744-25.545 0-42.345 16.606-16.8 16.606-16.8 42.256t16.606 42.394q16.606 16.744 42.256 16.744ZM480.046 802.13q60.28 0 109.943-26.924 49.663-26.923 79.185-71.728 8-14 1.311-26.858-6.689-12.859-22.539-12.859-9.816 0-17.794 5t-13.978 11.761q-23.843 31.124-59.036 47.747-35.193 16.622-76.138 16.622-40.945 0-77.013-16.122-36.068-16.123-59.161-47.247-5.579-7.522-13.344-12.642-7.765-5.119-17.905-5.119-15.11 0-22.55 13.739-7.44 13.739 5.799 31.739 25.761 40.283 74.35 66.587 48.59 26.304 108.87 26.304Zm-.205 191.066q-86.188 0-162.15-32.921-75.962-32.92-132.504-89.462-56.542-56.542-89.462-132.677-32.92-76.134-32.92-162.603 0-86.363 32.979-162.317 32.979-75.954 89.809-132.774 56.83-56.821 132.582-89.349 75.751-32.528 161.829-32.528 86.44 0 162.739 32.506 76.299 32.505 132.877 89.3 56.577 56.795 89.196 133.094 32.619 76.298 32.619 162.811 0 86.497-32.528 161.915-32.528 75.418-89.349 132.048-56.82 56.63-133.047 89.793-76.227 33.164-162.67 33.164Z"/></svg>