<svg xmlns="http://www.w3.org/2000/svg" height="48" viewBox="0 96 960 960" width="48"><path d="M636.304 747.391q-12.13-13.261-12.413-30.353-.282-17.092 12.848-29.864l70.087-69.522H408.13q-17.601 0-29.344-12.272-11.743-12.273-11.743-29.674 0-17.967 11.743-29.597 11.743-11.631 29.344-11.631h296.696l-72.087-73.087q-12.13-11.339-11.63-27.877.5-16.539 13.41-29.288 11.011-11.183 29.099-10.9 18.089.283 31.469 11.848l141.87 142.435q4.948 6.254 8.539 14.053 3.591 7.8 3.591 15.614 0 7.814-3.591 15.437-3.591 7.622-8.539 12.678L695.528 748.302q-11.702 11.785-28.615 11.22-16.913-.565-30.609-12.131ZM178.391 953.348q-34.42 0-59.08-24.812-24.66-24.812-24.66-58.362V281.826q0-33.783 24.66-58.761t59.08-24.978H432q18.026 0 30.057 12.42 12.03 12.421 12.03 29.773 0 17.917-12.03 29.732-12.031 11.814-30.057 11.814H178.391v588.348H432q18.026 0 30.057 11.806 12.03 11.806 12.03 29.772 0 17.402-12.03 29.499-12.031 12.097-30.057 12.097H178.391Z"/></svg>