<svg xmlns="http://www.w3.org/2000/svg" height="48" viewBox="0 96 960 960" width="48"><path d="M148.717 830.348q-16.61 0-27.881-11.338t-11.271-27.554q0-16.217 11.271-27.315 11.271-11.098 27.881-11.098h664.326q15.636 0 26.895 11.322 11.258 11.321 11.258 27.322 0 16.336-11.258 27.498-11.259 11.163-26.895 11.163H148.717Zm0-215.957q-16.61 0-27.881-11.505t-11.271-27.506q0-16.337 11.271-27.315 11.271-10.978 27.881-10.978h664.326q15.636 0 26.895 11.154 11.258 11.153 11.258 27.37 0 16.216-11.258 27.498-11.259 11.282-26.895 11.282H148.717Zm0-215.434q-16.61 0-27.881-11.506-11.271-11.505-11.271-27.506 0-16.336 11.271-27.434 11.271-11.098 27.881-11.098h664.326q15.636 0 26.895 11.273 11.258 11.274 11.258 27.49t-11.258 27.498q-11.259 11.283-26.895 11.283H148.717Z"/></svg>