<svg xmlns="http://www.w3.org/2000/svg" height="48" viewBox="0 96 960 960" width="48"><path d="M479.825 864.913q-15.711 0-26.844-11.103-11.133-11.103-11.133-28.049v-211.37H229.239q-15.636 0-26.894-11.505t-11.258-27.506q0-16.337 11.258-27.315 11.258-10.978 26.894-10.978h212.609V324.478q0-15.97 11.303-27.061 11.304-11.091 27.007-11.091 15.703 0 27.349 11.091 11.645 11.091 11.645 27.061v212.609h211.609q16.061 0 27.606 11.154 11.546 11.153 11.546 27.37 0 16.216-11.546 27.498-11.545 11.282-27.606 11.282H519.152v211.37q0 16.946-11.596 28.049-11.596 11.103-27.731 11.103Z"/></svg>