<svg xmlns="http://www.w3.org/2000/svg" height="48" viewBox="0 96 960 960" width="48"><path d="M541.82 294.913q-33.516 0-57.364-24.029-23.847-24.028-23.847-56.978 0-33.515 23.768-57.363t57.283-23.848q32.95 0 56.776 23.835 23.825 23.836 23.825 57.477 0 32.843-23.746 56.874-23.745 24.032-56.695 24.032Zm23.993 729.657q-16.509 0-27.574-11.11-11.065-11.11-11.065-27.59V781.261l-95.044-87.043-22.173 100.434q-8.261 34.522-36.87 53.848-28.609 19.326-61 10.065L145.13 824.826q-16.029-2.564-23.645-15.63-7.615-13.066-4.05-28.631 3.129-14.464 14.95-22.645t26.876-5.616l164.609 33 68.739-349.086-85.174 41.304v98.739q0 16.725-11.319 27.993-11.318 11.268-27.118 11.268-16.559 0-27.822-11.268-11.263-11.268-11.263-27.993v-94.652q0-25.229 14.84-46.416 14.841-21.187 38.073-30.758l120-49.305q32.952-14.869 48.16-18.652 15.207-3.782 29.049-3.782 21.835 0 39.965 10.348 18.13 10.347 29 28.347l43.066 67.668q22.499 34.506 57.997 61.685 35.498 27.178 84.372 34.821 15 1.87 25 13.773 10 11.904 10 24.984 0 17.498-12.131 28.566-12.13 11.069-28.261 9.069-55.608-6.566-98.326-34.652Q588 549.218 549 498.913l-35.304 139.783 64.043 57.478q12.816 13.627 19.321 29.139 6.505 15.513 6.505 31.774V985.87q0 16.48-11.121 27.59-11.122 11.11-26.631 11.11Z"/></svg>