<svg xmlns="http://www.w3.org/2000/svg" height="48" viewBox="0 96 960 960" width="48"><path d="M551.435 994.826h-142.87q-16.261 0-28.456-9.13-12.196-9.131-13.196-25.957l-15.435-96.609q-14.869-4.869-32.956-15.304-18.087-10.435-30.392-20.304l-88.608 41.435q-13.696 7.565-29.674 2-15.978-5.566-24.109-20.827L74.304 721.826q-9.695-13.696-5.13-28.956 4.565-15.261 16.695-24.392l81.305-60.304q-1-5.87-1.218-16.022-.217-10.152-.217-17.022 0-6.434.217-15.804.218-9.369 1.218-16.804l-81.305-59.435q-12.565-9.696-16.695-24.891-4.13-15.196 4.565-29.457l72-127.869q9.131-13.696 24.391-18.979 15.261-5.282 29.392 1.283l88.869 40.869q11.739-8.739 30.044-19.391Q336.739 294 351.478 289.13l15.435-97.869q1-16.261 13.478-25.674 12.479-9.413 28.174-9.413h142.87q15.695 0 28.174 9.413 12.478 9.413 14.478 25.674l14.435 97.304q15.869 4.87 34.108 15.522 18.24 10.652 30.109 19.956l87.739-41.434q13.696-6.566 29.674-1 15.978 5.565 24.109 19.261l72.565 126.869q8.696 14.261 4.565 29.957-4.13 15.695-16.261 25.391l-83.304 57.304q1 8.435 2.283 18.305 1.282 9.869 1.282 17.304 0 7.435-1.282 16.804-1.283 9.37-1.848 16.805l82.435 58.304q12.13 10.696 16.195 25.674 4.066 14.978-4.065 29.239L814.261 851.13q-9.131 15.261-24.609 20.327-15.478 5.065-29.174-2.5l-88.608-41.435q-12.305 9.869-30.457 20.804-18.152 10.935-31.891 14.804l-15.435 96.609q-2 16.826-14.478 25.957-12.479 9.13-28.174 9.13ZM479 709.956q56.043 0 95.217-39.174 39.174-39.173 39.174-95.217 0-55.478-39.174-94.934-39.174-39.457-95.217-39.457-56.609 0-95.5 39.457-38.891 39.456-38.891 94.934 0 56.044 38.891 95.217 38.891 39.174 95.5 39.174Z"/></svg>